<?xml version="1.0" encoding="UTF-8"?><svg xmlns="http://www.w3.org/2000/svg" viewBox="0 0 108.59211 157.61457"><defs><style>.d{fill:#fff;stroke:#000;stroke-miterlimit:10;stroke-width:5.08817px;}</style></defs><g id="a"/><g id="b"><g id="c"><ellipse cx="33.87602" cy="135.57288" rx="35.2243" ry="19.80159" transform="translate(-43.10255 18.94574) rotate(-19.397)"/><line class="d" x1="64.92644" y1="130.62211" x2="64.92644" y2=".02211"/><path d="M67.55433,.00553c2.41602,.16455,3.78664,3.94904,4.23179,5.00677,3.44522,8.1861,17.74319,9.01642,27.53346,19.95551,2.42985,2.71497,8.28723,9.43469,9.17782,19.00525,.14772,1.58789,.66675,8.71332-3.93336,17.10474-4.14277,7.55707-10.72692,13.71753-11.80005,13.30365-1.56088-.60193,12.9208-13.44196,9.17782-28.50787-2.04142-8.21704-8.83548-14.40466-11.80005-17.10468-4.76377-4.33862-9.26506-8.43817-17.04453-10.45288-3.32781-.86188-4.70774-.68237-6.55559-1.90057-.00009-.00006-.26-.18311-.50882-.38989-3.13938-2.60919-5.70265-11.27155-.94436-15.02002,.50409-.39709,1.38663-1.07349,2.46586-1Z"/></g></g></svg>