<?xml version="1.0" encoding="UTF-8"?><svg xmlns="http://www.w3.org/2000/svg" viewBox="0 0 107.0825 157.62187"><defs><style>.d{fill:#fff;stroke:#000;stroke-miterlimit:10;stroke-width:5.08817px;}</style></defs><g id="a"/><g id="b"><g id="c"><ellipse cx="33.87602" cy="135.58017" rx="35.2243" ry="19.80159" transform="translate(-43.10498 18.94615) rotate(-19.397)"/><line class="d" x1="64.92645" y1="130.62944" x2="64.92645" y2=".0294"/><path d="M66.92129,2.16264c0,.00012,.15695,1.15228,1,3,1.68457,3.69208,17.14389,10.64801,24.43491,18.81244,2.42117,2.71118,4.11508,5.83771,4.11514,5.83777,1.47803,2.7467,2.14786,5.04156,2.35764,5.80127,.34003,1.23132,.9866,3.91583,.97113,7.36621-.01099,2.45032-.35147,4.30688-.87881,7.18231-.07959,.43402-.36777,1.75494-.94412,4.39673-.00003,.00012-.51114,2.3429-1.36731,5.5257-.48071,1.78699-.60031,2.08899-.68857,2.07758-.43234-.05591-.20425-5.55817-.24524-8.71704-.05814-4.4812-.1348-13.64264-4.75476-21.28296-5.52264-9.13312-17.02112-15.27161-23-16-.31418-.03827-1.22037-.13562-2.15054-.73993C61.03201,12.34398,62.36465,.44713,64.5921,.0128c.45609-.08893,1.17596,.24994,2.32919,2.14984Z"/><path d="M66.04473,28.69861c2.41602,.16455,3.78664,3.94904,4.23179,5.00677,3.44522,8.1861,17.74319,9.01642,27.53346,19.95551,2.42985,2.71497,8.28723,9.43469,9.17782,19.00525,.14772,1.58789,.66675,8.71332-3.93336,17.10474-4.14277,7.55707-10.72692,13.71753-11.80005,13.30365-1.56088-.60193,12.9208-13.44196,9.17782-28.50787-2.04142-8.21704-8.83548-14.40466-11.80005-17.10468-4.76377-4.33862-9.26506-8.43817-17.04453-10.45288-3.32781-.86188-4.70774-.68237-6.55559-1.90057-.00009-.00006-.26-.18311-.50882-.38989-1.70148-1.41413-3.12375-13.30315-.94436-15.02002,.50409-.39709,1.38663-1.07349,2.46586-1Z"/></g></g></svg>