<svg fill="#ffffff" xmlns="http://www.w3.org/2000/svg"  viewBox="0 0 64 64" width="128px" height="128px"><path d="M 13 6 C 9.1482075 6 6 9.1482075 6 13 L 6 51 C 6 54.851793 9.1482075 58 13 58 L 51 58 C 54.851793 58 58 54.851793 58 51 L 58 13 C 58 9.1482075 54.851793 6 51 6 L 13 6 z M 13 8 L 29.464844 8 L 31 10.302734 L 31 21 L 31 22 L 31 23 C 31 23.552 31.448 24 32 24 C 32.552 24 33 23.552 33 23 L 33 22 L 33 21 L 33 10.302734 L 34.535156 8 L 51 8 C 53.768207 8 56 10.231793 56 13 L 56 51 C 56 53.768207 53.768207 56 51 56 L 13 56 C 10.231793 56 8 53.768207 8 51 L 8 13 C 8 10.231793 10.231793 8 13 8 z M 31.869141 8 L 32.130859 8 L 32 8.1972656 L 31.869141 8 z M 12.492188 9.9921875 A 0.50005 0.50005 0 0 0 12 10.5 L 12 13.929688 A 0.50005 0.50005 0 0 0 12 14.080078 L 12 17.5 A 0.50005 0.50005 0 0 0 12.658203 17.974609 C 12.658203 17.974609 13.448247 17.712969 14.251953 17.244141 C 14.653806 17.009726 15.065179 16.724312 15.398438 16.363281 C 15.731695 16.002251 16 15.541667 16 15 C 16 14.083333 15.47294 13.338636 14.720703 13.087891 C 14.196222 12.913064 13.599679 13.021122 13 13.25 L 13 10.5 A 0.50005 0.50005 0 0 0 12.492188 9.9921875 z M 49.492188 9.9921875 A 0.50005 0.50005 0 0 0 49 10.5 L 49 12.390625 L 48.402344 12.509766 A 0.50005 0.50005 0 1 0 48.597656 13.490234 L 49 13.410156 L 49 15.390625 L 48.402344 15.509766 A 0.50005 0.50005 0 1 0 48.597656 16.490234 L 49 16.410156 L 49 17.5 A 0.50005 0.50005 0 1 0 50 17.5 L 50 16.208984 L 52 15.810547 L 52 17.5 A 0.50005 0.50005 0 1 0 53 17.5 L 53 15.609375 L 53.597656 15.490234 A 0.50005 0.50005 0 1 0 53.402344 14.509766 L 53 14.589844 L 53 12.609375 L 53.597656 12.490234 A 0.50005 0.50005 0 1 0 53.402344 11.509766 L 53 11.589844 L 53 10.5 A 0.50005 0.50005 0 1 0 52 10.5 L 52 11.791016 L 50 12.189453 L 50 10.5 A 0.50005 0.50005 0 0 0 49.492188 9.9921875 z M 52 12.810547 L 52 14.791016 L 50 15.189453 L 50 13.208984 L 52 12.810547 z M 18.492188 13.992188 A 0.50005 0.50005 0 0 0 18 14.5 L 18 17.5 A 0.50005 0.50005 0 1 0 19 17.5 L 19 14.5 A 0.50005 0.50005 0 0 0 18.492188 13.992188 z M 45.492188 13.992188 A 0.50005 0.50005 0 0 0 45 14.5 L 45 17.5 A 0.50005 0.50005 0 1 0 46 17.5 L 46 14.5 A 0.50005 0.50005 0 0 0 45.492188 13.992188 z M 14.126953 14.001953 C 14.230803 13.999214 14.323871 14.010301 14.404297 14.037109 C 14.77706 14.161365 15 14.416667 15 15 C 15 15.208333 14.893304 15.435249 14.664062 15.683594 C 14.434821 15.931938 14.096194 16.177774 13.748047 16.380859 C 13.37749 16.597018 13.269209 16.614003 13 16.724609 L 13 14.363281 C 13.411675 14.144278 13.815403 14.010171 14.126953 14.001953 z M 21.492188 15.992188 A 0.50005 0.50005 0 0 0 21 16.5 L 21 17.5 A 0.50005 0.50005 0 1 0 22 17.5 L 22 16.5 A 0.50005 0.50005 0 0 0 21.492188 15.992188 z M 24.492188 15.992188 A 0.50005 0.50005 0 0 0 24 16.5 L 24 17.5 A 0.50005 0.50005 0 1 0 25 17.5 L 25 16.5 A 0.50005 0.50005 0 0 0 24.492188 15.992188 z M 27.492188 15.992188 A 0.50005 0.50005 0 0 0 27 16.5 L 27 17.5 A 0.50005 0.50005 0 1 0 28 17.5 L 28 16.5 A 0.50005 0.50005 0 0 0 27.492188 15.992188 z M 36.492188 15.992188 A 0.50005 0.50005 0 0 0 36 16.5 L 36 17.5 A 0.50005 0.50005 0 1 0 37 17.5 L 37 16.5 A 0.50005 0.50005 0 0 0 36.492188 15.992188 z M 39.492188 15.992188 A 0.50005 0.50005 0 0 0 39 16.5 L 39 17.5 A 0.50005 0.50005 0 1 0 40 17.5 L 40 16.5 A 0.50005 0.50005 0 0 0 39.492188 15.992188 z M 42.492188 15.992188 A 0.50005 0.50005 0 0 0 42 16.5 L 42 17.5 A 0.50005 0.50005 0 1 0 43 17.5 L 43 16.5 A 0.50005 0.50005 0 0 0 42.492188 15.992188 z M 12 20 C 11.448 20 11 20.448 11 21 L 11 23 C 11 23.552 11.448 24 12 24 C 12.552 24 13 23.552 13 23 L 13 21 C 13 20.448 12.552 20 12 20 z M 17 20 C 16.448 20 16 20.448 16 21 L 16 23 C 16 23.552 16.448 24 17 24 C 17.552 24 18 23.552 18 23 L 18 21 C 18 20.448 17.552 20 17 20 z M 22 20 C 21.448 20 21 20.448 21 21 L 21 23 C 21 23.552 21.448 24 22 24 C 22.552 24 23 23.552 23 23 L 23 21 C 23 20.448 22.552 20 22 20 z M 27 20 C 26.448 20 26 20.448 26 21 L 26 23 C 26 23.552 26.448 24 27 24 C 27.552 24 28 23.552 28 23 L 28 21 C 28 20.448 27.552 20 27 20 z M 37 20 C 36.448 20 36 20.448 36 21 L 36 23 C 36 23.552 36.448 24 37 24 C 37.552 24 38 23.552 38 23 L 38 21 C 38 20.448 37.552 20 37 20 z M 42 20 C 41.448 20 41 20.448 41 21 L 41 23 C 41 23.552 41.448 24 42 24 C 42.552 24 43 23.552 43 23 L 43 21 C 43 20.448 42.552 20 42 20 z M 47 20 C 46.448 20 46 20.448 46 21 L 46 23 C 46 23.552 46.448 24 47 24 C 47.552 24 48 23.552 48 23 L 48 21 C 48 20.448 47.552 20 47 20 z M 52 20 C 51.448 20 51 20.448 51 21 L 51 23 C 51 23.552 51.448 24 52 24 C 52.552 24 53 23.552 53 23 L 53 21 C 53 20.448 52.552 20 52 20 z M 40.492188 26.992188 A 0.50005 0.50005 0 0 0 40 27.5 L 40 29.390625 L 39.402344 29.509766 A 0.50005 0.50005 0 1 0 39.597656 30.490234 L 40 30.410156 L 40 32.390625 L 39.402344 32.509766 A 0.50005 0.50005 0 1 0 39.597656 33.490234 L 40 33.410156 L 40 34.5 A 0.50005 0.50005 0 1 0 41 34.5 L 41 33.208984 L 43 32.810547 L 43 34.5 A 0.50005 0.50005 0 1 0 44 34.5 L 44 32.609375 L 44.597656 32.490234 A 0.50005 0.50005 0 1 0 44.402344 31.509766 L 44 31.589844 L 44 29.609375 L 44.597656 29.490234 A 0.50005 0.50005 0 1 0 44.402344 28.509766 L 44 28.589844 L 44 27.5 A 0.50005 0.50005 0 1 0 43 27.5 L 43 28.791016 L 41 29.189453 L 41 27.5 A 0.50005 0.50005 0 0 0 40.492188 26.992188 z M 30 29 A 1.0001 1.0001 0 0 0 29.060547 29.658203 L 21.060547 51.658203 A 1.0001 1.0001 0 0 0 22 53 L 27 53 A 1.0001 1.0001 0 0 0 27.949219 52.316406 L 28.720703 50 L 35.279297 50 L 36.050781 52.316406 A 1.0001 1.0001 0 0 0 37 53 L 42 53 A 1.0001 1.0001 0 0 0 42.939453 51.658203 L 34.939453 29.658203 A 1.0001 1.0001 0 0 0 34 29 L 32 29 L 30 29 z M 43 29.810547 L 43 31.791016 L 41 32.189453 L 41 30.208984 L 43 29.810547 z M 30.701172 31 L 32 31 L 33.298828 31 L 40.572266 51 L 37.720703 51 L 36.949219 48.683594 A 1.0001 1.0001 0 0 0 36 48 L 28 48 A 1.0001 1.0001 0 0 0 27.050781 48.683594 L 26.279297 51 L 23.427734 51 L 30.701172 31 z M 31.949219 36.001953 A 1.0001 1.0001 0 0 0 31.050781 36.683594 L 28.384766 44.683594 A 1.0001 1.0001 0 0 0 29.332031 46 L 34.667969 46 A 1.0001 1.0001 0 0 0 35.615234 44.683594 L 32.949219 36.683594 A 1.0001 1.0001 0 0 0 31.949219 36.001953 z M 32 40.162109 L 33.279297 44 L 30.720703 44 L 32 40.162109 z"/></svg>