<?xml version="1.0" encoding="UTF-8" standalone="no"?>
<svg
   xmlns:dc="http://purl.org/dc/elements/1.1/"
   xmlns:cc="http://creativecommons.org/ns#"
   xmlns:rdf="http://www.w3.org/1999/02/22-rdf-syntax-ns#"
   xmlns:svg="http://www.w3.org/2000/svg"
   xmlns="http://www.w3.org/2000/svg"
   version="1.1"
   id="svg10"
   width="307"
   height="136"
   viewBox="0 0 307 136">
  <metadata
     id="metadata16">
    <rdf:RDF>
      <cc:Work
         rdf:about="">
        <dc:format>image/svg+xml</dc:format>
        <dc:type
           rdf:resource="http://purl.org/dc/dcmitype/StillImage" />
        <dc:title></dc:title>
      </cc:Work>
    </rdf:RDF>
  </metadata>
  <defs
     id="defs14" />
  <g
     id="g18">
    <g
       id="g22"
       transform="translate(-376.58667,-83.355152)">
      <path
         style="fill:#171717"
         d="m 472.95217,199.85147 c -2.2863,-2.2863 -2.92308,-3.82203 -2.92308,-7.04966 0,-4.6395 2.11056,-9.47198 4.5448,-10.40608 4.04707,-1.55301 8.61723,-0.613 11.62035,2.39012 3.01131,3.01131 3.01131,3.01131 5.82429,0 2.34688,-2.51235 3.5825,-3.0113 7.45722,-3.0113 6.63159,0 9.55334,3.06798 9.55334,10.03146 0,4.32825 -0.45317,5.57556 -2.92308,8.04546 -1.74692,1.74693 -3.97992,2.92308 -5.54966,2.92308 -3.38472,0 -8.18425,-2.49057 -9.48567,-4.92229 -0.95233,-1.77944 -1.23688,-1.68242 -4.42965,1.51035 -4.54466,4.54466 -9.45761,4.72012 -13.68886,0.48886 z m 30.74843,-1.47079 c 5.32219,-4.57796 2.81471,-14.60613 -3.65218,-14.60613 -2.74165,0 -5.80536,2.63404 -7.99645,6.875 -1.6188,3.13326 0.32588,6.92905 4.47712,8.73883 3.99209,1.7404 3.97364,1.74299 7.17151,-1.0077 z m -19.85557,-0.90569 c 0.72376,-0.58012 1.98085,-2.34058 2.79352,-3.91212 1.35679,-2.62374 1.3084,-3.09494 -0.59192,-5.76369 -3.88802,-5.46023 -10.19117,-5.24668 -12.56118,0.42557 -3.28429,7.86042 3.98998,14.35574 10.35958,9.25024 z m 98.57565,-0.12235 c -0.3001,-0.78205 -0.66421,-2.24455 -0.80913,-3.25 -0.15453,-1.07215 -1.25986,-1.96649 -2.67298,-2.16277 -1.32521,-0.18407 -2.76778,-0.67738 -3.20571,-1.09623 -0.43793,-0.41886 -1.01144,-6.04407 -1.27447,-12.50048 -0.4673,-11.47021 -0.54458,-11.79473 -3.37602,-14.17724 -4.5634,-3.83984 -8.0571,-11.81694 -8.03132,-18.33772 0.0733,-18.53528 20.41696,-30.01894 36.49131,-20.59874 13.50308,7.91332 16.01235,26.85864 4.97436,37.55707 -2.68405,2.60149 -3.49116,4.19918 -3.50294,6.93418 -0.008,1.95461 -0.42703,4.20459 -0.93023,4.99995 -0.55986,0.88493 -0.53751,2.1513 0.0576,3.26325 0.62179,1.16184 0.62721,2.43413 0.015,3.52806 -0.61417,1.09746 -0.60384,2.37171 0.0288,3.55381 1.40357,2.62258 -1.44628,6.70877 -4.67891,6.70877 -1.91798,0 -2.47695,0.51904 -2.47695,2.3 0,1.265 -0.54,2.84 -1.2,3.5 -1.70583,1.70583 -8.73226,1.5401 -9.40841,-0.22191 z m 6.42796,-3.40642 c 0.24018,-1.63227 -0.19448,-2.17167 -1.75,-2.17167 -1.34017,0 -2.06955,0.64612 -2.06955,1.83333 0,3.80163 3.26736,4.09105 3.81955,0.33834 z m 7.68045,-7.17167 c 0,-1.22206 -1.66514,-1.5 -8.9863,-1.5 -7.83721,0 -9.03036,0.22871 -9.33076,1.78859 -0.31412,1.63107 0.4773,1.76318 8.9863,1.5 7.49908,-0.23194 9.33076,-0.58305 9.33076,-1.78859 z m 0,-7 c 0,-1.22206 -1.66514,-1.5 -8.9863,-1.5 -7.83721,0 -9.03036,0.22871 -9.33076,1.78859 -0.31412,1.63107 0.4773,1.76318 8.9863,1.5 7.49908,-0.23194 9.33076,-0.58305 9.33076,-1.78859 z m -14.71617,-15.74201 c -0.28383,-10.74201 -0.28383,-10.74201 -3.24746,-11.25352 -1.86713,-0.32226 -3.53207,-1.52768 -4.5,-3.258 -1.38019,-2.46728 -1.38068,-3.02602 -0.005,-5.49648 3.04329,-5.46415 10.96863,-3.31487 10.96863,2.97454 0,2.43766 0.3621,2.86228 2.21297,2.59502 1.6094,-0.2324 2.40039,-1.24123 2.90014,-3.69882 0.37794,-1.8586 1.2946,-3.76421 2.03703,-4.23469 3.94559,-2.50036 8.84986,0.58574 8.84986,5.56894 0,3.88622 -1.55559,5.54502 -5.2,5.54502 -2.8,0 -2.8,0 -2.8,11.07332 0,10.00595 0.16868,11.04129 1.75,10.74101 1.31317,-0.24937 1.82527,-1.49578 2.05152,-4.99327 0.25717,-3.9754 0.94094,-5.30036 4.64877,-9.00819 5.0325,-5.03251 7.07241,-10.93809 6.14936,-17.80253 -1.15388,-8.58107 -9.32702,-16.53173 -17.59965,-17.1206 -9.41866,-0.67044 -11.05339,-0.14095 -16.54912,5.36025 -7.89263,7.90051 -9.20833,15.42463 -4.35928,24.92955 1.05854,2.07492 3.27097,4.76797 4.91651,5.98457 2.39246,1.76883 2.99189,2.95934 2.99189,5.94216 0,5.03981 0.84465,6.89373 3.14082,6.89373 1.80049,0 1.90823,-0.70442 1.64301,-10.74201 z m 7.21617,-0.25799 c 0,-10.33334 -0.12121,-11 -2,-11 -1.87879,0 -2,0.66666 -2,11 0,10.33333 0.12121,11 2,11 1.87879,0 2,-0.66667 2,-11 z m -8,-16.50001 c 0,-1.83333 -0.53333,-2.5 -2,-2.5 -1.95113,0 -2.82537,2.8413 -1.33333,4.33334 1.51807,1.51807 3.33333,0.51968 3.33333,-1.83334 z m 15.96365,1.04381 c 1.3742,-1.65582 0.59443,-3.54381 -1.46365,-3.54381 -1.79951,0 -2.82371,1.71404 -2.12,3.54789 0.71035,1.85113 2.04522,1.84961 3.58365,-0.004 z m -193.21365,45.76687 c -1.23723,-0.32332 -1.75,-1.46138 -1.75,-3.884 0,-3.90782 2.24382,-4.70812 4,-1.42667 1.48655,2.77764 4.62758,2.49802 6.65238,-0.59222 1.39999,-2.13666 1.84069,-6.55788 2.50764,-25.15769 0.85663,-23.88925 1.88714,-32.25684 4.7723,-38.75009 2.58627,-5.8206 5.47107,-8 10.58933,-8 5.26815,0 5.65861,0.34868 4.86029,4.34027 -0.72809,3.64047 -2.33755,4.06171 -4.18938,1.09646 -0.8061,-1.29078 -2.10945,-1.94598 -3.48118,-1.75 -4.19207,0.59892 -4.97609,4.64008 -5.77734,29.77891 -0.77275,24.24438 -1.77456,31.75581 -5.11616,38.36 -2.54672,5.03323 -7.69222,7.38984 -13.06788,5.98503 z m 27.25,-1.81067 c 0,-1.26437 2.27778,-1.5 14.5,-1.5 12.22222,0 14.5,0.23563 14.5,1.5 0,1.26436 -2.27778,1.5 -14.5,1.5 -12.22222,0 -14.5,-0.23564 -14.5,-1.5 z m 102.29724,-0.6566 c -8.16288,-1.83043 -11.51116,-9.13143 -9.41211,-20.52336 1.33888,-7.26639 0.50493,-9.93306 -3.41399,-10.91665 -3.18369,-0.79905 -3.18369,-3.00774 0,-3.80679 3.78352,-0.94961 4.85604,-3.84379 3.59808,-9.70943 -1.45918,-6.80392 -1.34326,-10.50741 0.44694,-14.27998 1.79787,-3.78873 5.65397,-6.2741 10.48384,-6.75715 4.31557,-0.43161 4.76246,1.29152 0.68726,2.64996 -3.73,1.24336 -6.67781,5.09538 -6.90116,9.01802 -0.0934,1.64009 0.18605,5.79734 0.62098,9.23835 0.77524,6.13347 0.73009,6.31307 -2.29795,9.14168 -3.08872,2.8853 -3.08872,2.8853 -0.6148,4.50627 3.20737,2.10155 3.81405,4.80605 2.68838,11.98436 -0.50475,3.21878 -0.55091,7.4856 -0.10257,9.48182 0.95438,4.24941 4.99967,8.1295 8.47562,8.1295 1.50599,0 2.44424,0.57579 2.44424,1.5 0,1.66857 -0.64557,1.70164 -6.70276,0.3434 z m 108.70276,-0.3434 c 0,-0.94528 0.95299,-1.5 2.57692,-1.5 3.41424,0 8.37682,-5.01607 8.58061,-8.67308 0.19612,-3.51926 0.14089,-4.45034 -0.68715,-11.5833 -0.64092,-5.52111 -0.542,-5.87431 2.42049,-8.64168 3.08872,-2.8853 3.08872,-2.8853 0.6148,-4.50627 -3.21163,-2.10435 -3.81404,-4.80616 -2.68164,-12.02735 0.55742,-3.55466 0.56369,-7.20196 0.0158,-9.18633 -1.06448,-3.85515 -5.11336,-7.38199 -8.47469,-7.38199 -1.4439,0 -2.36514,-0.58887 -2.36514,-1.51182 0,-1.21336 0.83904,-1.38419 4.25,-0.86532 10.91217,1.65993 14.48879,8.171 11.68078,21.26431 -1.25796,5.86564 -0.18544,8.75982 3.59808,9.70943 1.35913,0.34111 2.47114,1.19764 2.47114,1.9034 0,0.70575 -1.11201,1.56228 -2.47114,1.90339 -3.91892,0.98359 -4.75287,3.65026 -3.41399,10.91665 2.18671,11.86767 -1.17679,18.66966 -10.18748,20.60211 -6.26041,1.34262 -5.92739,1.36633 -5.92739,-0.42215 z m -97.3064,-15.85609 c -0.48135,-1.25438 4.87627,-4.64391 7.34033,-4.64391 2.03435,0 0.83804,2.64441 -1.93822,4.28439 -3.50412,2.06993 -4.71484,2.15051 -5.40211,0.35952 z m 80.5564,-0.6187 c -3.20181,-1.96623 -4.01842,-3.43227 -2.4513,-4.4008 1.0961,-0.67743 8.53129,3.63453 8.40705,4.87559 -0.17706,1.76865 -2.61959,1.57393 -5.95575,-0.47479 z m -87.23536,-22.01617 c -2.34019,-1.44631 0.058,-3.00905 4.6177,-3.00905 3.76047,0 4.45829,0.29224 4.17885,1.75001 -0.36143,1.88552 -6.38736,2.748 -8.79655,1.25904 z m 89.67921,-0.64852 c -1.42684,-1.42685 0.69529,-2.36053 5.36517,-2.36053 3.72532,0 4.94098,0.36906 4.94098,1.50001 0,1.12643 -1.2037,1.5 -4.83333,1.5 -2.65834,0 -5.1211,-0.28777 -5.47282,-0.63948 z M 547.3882,130.85163 c -3.68295,-2.24547 -4.77533,-3.70182 -3.40972,-4.54581 1.39566,-0.86256 9.25877,3.34424 8.80354,4.70993 -0.62993,1.88979 -2.09835,1.84511 -5.39382,-0.16412 z m 75.01173,0.44693 c -0.33985,-0.88565 -0.44982,-1.73456 -0.24438,-1.88647 2.45134,-1.81257 7.83864,-4.33911 8.28993,-3.88782 1.4004,1.4004 0.31033,3.03558 -3.42201,5.13328 -3.54793,1.99405 -4.07622,2.06729 -4.62354,0.64101 z M 448.48363,125.32 c -1.96715,-1.96715 -2.45454,-3.47168 -2.45454,-7.57692 0,-4.32824 0.45317,-5.57555 2.92308,-8.04546 4.305,-4.305 11.14146,-3.5259 14.53724,1.65671 1.48836,2.27153 1.48836,2.27153 4.91402,-1.15413 4.55892,-4.55891 9.46626,-4.7389 13.70258,-0.50258 2.46991,2.46991 2.92308,3.71722 2.92308,8.04546 0,4.10524 -0.48739,5.60977 -2.45455,7.57692 -3.57441,3.57441 -9.46551,3.39128 -13.73902,-0.4271 -3.22513,-2.88165 -3.22513,-2.88165 -5.91699,0 -3.65539,3.91311 -10.73929,4.12271 -14.4349,0.4271 z m 31.20869,-1.02213 c 6.74404,-4.7237 1.23825,-17.71371 -6.09227,-14.3737 -1.33597,0.60871 -3.47347,3.10093 -4.75,5.53828 -2.32096,4.43154 -2.32096,4.43154 0.94482,7.37182 3.6078,3.24822 6.69729,3.70508 9.89745,1.4636 z m -18.76682,-3.05812 c 1.70697,-1.94414 3.10359,-3.96204 3.10359,-4.48422 0,-1.5789 -5.35252,-6.78244 -7.65204,-7.43907 -3.39883,-0.97053 -7.50935,3.16818 -7.63752,7.6899 -0.22498,7.93684 6.79352,10.37505 12.18597,4.23339 z m 102.08609,-7.4995 c -1.93626,-3.79538 -1.94436,-5.9657 -0.0223,-5.9657 1.36036,0 5.19102,7.16343 4.62268,8.6445 -0.91405,2.38197 -2.4854,1.46698 -4.60042,-2.6788 z m 43.0175,2.42045 c 0,-1.6883 4.53981,-8.38615 5.68414,-8.38615 1.81846,0 1.6458,2.63288 -0.39975,6.0957 -1.46722,2.48382 -5.28439,4.13832 -5.28439,2.29045 z m -20.31025,-5.08337 c -1.05036,-1.70851 -0.42054,-8.28132 0.89842,-9.37596 1.83387,-1.52198 2.65466,0.55562 2.22846,5.64071 -0.29542,3.52476 -2.00257,5.56406 -3.12688,3.73525 z"
         id="path24" />
    </g>
  </g>
</svg>
