<?xml version="1.0" encoding="UTF-8"?><svg id="a" xmlns="http://www.w3.org/2000/svg" viewBox="0 0 1212.88477 89.61181"><defs><style>.i,.j{stroke-width:.98561px;}.i,.j,.k{stroke:#000;}.i,.k{fill:none;}.j{stroke-miterlimit:10;}</style></defs><g id="b" transform="translate(0 4.034)"><g id="c" transform="translate(0 -1)"><path class="j" d="M1.99281,.49281h0c.82843,0,1.5,.65239,1.5,1.45714V67.03566c0,.80476-.67157,1.45714-1.5,1.45714h0c-.82843,0-1.5-.65238-1.5-1.45714V1.94995C.49281,1.14519,1.16438,.49281,1.99281,.49281Z"/><path class="i" d="M1.99281,.97852h0c.55228,0,1,.43492,1,.97143V67.03566c0,.5365-.44772,.97143-1,.97143h0c-.55228,0-1-.43492-1-.97143V1.94995c0-.53651,.44772-.97143,1-.97143Z"/></g><line id="d" class="k" x1="1.99281" y1="8.99281" x2="1212.88477" y2="8.99281"/><line id="e" class="k" x1="1.99281" y1="57.99281" x2="1212.88477" y2="57.99281"/><line id="f" class="k" x1="1.99281" y1="33.99281" x2="1212.88477" y2="33.99281"/><line id="g" class="k" x1="1.99281" y1="20.99281" x2="1212.88477" y2="20.99281"/><line id="h" class="k" x1="1.99281" y1="45.99281" x2="1212.88477" y2="45.99281"/></g></svg>